<svg width="26" height="25" viewBox="0 0 26 25" fill="none" xmlns="http://www.w3.org/2000/svg">
    <path d="M20.8 20C21.4896 20 22.1509 20.2634 22.6385 20.7322C23.1261 21.2011 23.4 21.837 23.4 22.5C23.4 23.163 23.1261 23.7989 22.6385 24.2678C22.1509 24.7366 21.4896 25 20.8 25C19.357 25 18.2 23.875 18.2 22.5C18.2 21.1125 19.357 20 20.8 20ZM7.62939e-06 -7.62939e-06H4.25101L5.47301 2.49999H24.7C25.0448 2.49999 25.3755 2.63169 25.6192 2.86611C25.863 3.10053 26 3.41847 26 3.74999C26 3.96249 25.935 4.17499 25.844 4.37499L21.19 12.4625C20.748 13.225 19.89 13.75 18.915 13.75H9.23001L8.06001 15.7875L8.02101 15.9375C8.02101 16.0204 8.05525 16.0999 8.1162 16.1585C8.17715 16.2171 8.25981 16.25 8.34601 16.25H23.4V18.75H7.80001C6.35701 18.75 5.20001 17.625 5.20001 16.25C5.20001 15.8125 5.31701 15.4 5.51201 15.05L7.28001 11.9875L2.60001 2.49999H7.62939e-06V-7.62939e-06ZM7.80001 20C8.48957 20 9.15089 20.2634 9.63848 20.7322C10.1261 21.2011 10.4 21.837 10.4 22.5C10.4 23.163 10.1261 23.7989 9.63848 24.2678C9.15089 24.7366 8.48957 25 7.80001 25C6.35701 25 5.20001 23.875 5.20001 22.5C5.20001 21.1125 6.35701 20 7.80001 20ZM19.5 11.25L23.114 4.99999H6.68201L9.75001 11.25H19.5Z" fill="white"/>
    </svg>
    